<svg width="512" height="512" viewBox="0 0 512 512" fill="none" xmlns="http://www.w3.org/2000/svg">
<g clip-path="url(#clip0_301_259)">
<path d="M425.6 118.101L351.232 43.7334C337.399 29.8257 320.945 18.7995 302.823 11.2927C284.7 3.78591 265.269 -0.0523402 245.653 4.07034e-05H149.333C121.054 0.033915 93.9427 11.2829 73.9461 31.2794C53.9496 51.2759 42.7006 78.3873 42.6667 106.667V405.333C42.7006 433.613 53.9496 460.724 73.9461 480.721C93.9427 500.717 121.054 511.966 149.333 512H362.667C390.946 511.966 418.058 500.717 438.054 480.721C458.051 460.724 469.3 433.613 469.333 405.333V223.68C469.386 204.064 465.548 184.633 458.041 166.511C450.534 148.388 439.508 131.934 425.6 118.101V118.101ZM395.435 148.267C401.942 154.974 407.544 162.505 412.096 170.667H320C314.342 170.667 308.916 168.419 304.915 164.418C300.914 160.418 298.667 154.991 298.667 149.333V57.2374C306.829 61.7896 314.359 67.391 321.067 73.8987L395.435 148.267ZM426.667 405.333C426.667 422.307 419.924 438.586 407.922 450.588C395.919 462.591 379.641 469.333 362.667 469.333H149.333C132.36 469.333 116.081 462.591 104.079 450.588C92.0763 438.586 85.3334 422.307 85.3334 405.333V106.667C85.3334 89.6929 92.0763 73.4142 104.079 61.4119C116.081 49.4095 132.36 42.6667 149.333 42.6667H245.653C249.173 42.6667 252.544 43.3494 256 43.6694V149.333C256 166.307 262.743 182.586 274.745 194.588C286.748 206.591 303.026 213.333 320 213.333H425.664C425.984 216.789 426.667 220.16 426.667 223.68V405.333ZM356.779 283.968C360.674 288.066 362.784 293.542 362.644 299.195C362.504 304.847 360.126 310.212 356.032 314.112L279.467 386.944C267.431 398.79 251.202 405.399 234.315 405.331C217.428 405.263 201.252 398.524 189.312 386.581L156.459 357.269C152.232 353.501 149.676 348.208 149.352 342.555C149.191 339.756 149.584 336.953 150.507 334.305C151.43 331.658 152.865 329.218 154.731 327.125C156.597 325.033 158.856 323.328 161.381 322.108C163.906 320.889 166.646 320.179 169.445 320.018C175.098 319.694 180.648 321.629 184.875 325.397L218.688 355.563C220.624 357.736 222.984 359.491 225.623 360.719C228.262 361.946 231.125 362.621 234.034 362.701C236.944 362.781 239.839 362.264 242.542 361.184C245.244 360.103 247.697 358.48 249.749 356.416L326.549 283.221C328.58 281.28 330.975 279.758 333.595 278.744C336.215 277.731 339.01 277.244 341.819 277.314C344.628 277.383 347.396 278.007 349.963 279.149C352.53 280.291 354.846 281.928 356.779 283.968V283.968Z" fill="white"/>
</g>
<defs>
<clipPath id="clip0_301_259">
<rect width="512" height="512" fill="white"/>
</clipPath>
</defs>
</svg>
