<svg width="480" height="582" viewBox="0 0 480 582" fill="none" xmlns="http://www.w3.org/2000/svg">
<path d="M263.516 608.123C263.523 608.123 263.523 608.123 263.53 608.123C267.139 608.05 270.821 607.745 274.459 607.221C274.83 607.17 275.092 606.821 275.034 606.45C274.983 606.079 274.67 605.809 274.263 605.875C270.683 606.391 267.059 606.69 263.508 606.763C263.13 606.77 262.832 607.083 262.839 607.454C262.839 607.832 263.145 608.123 263.516 608.123ZM252.609 607.658C252.951 607.658 253.249 607.396 253.285 607.046C253.322 606.668 253.053 606.333 252.681 606.297C249.123 605.919 245.529 605.307 242.007 604.485C241.629 604.391 241.272 604.631 241.185 604.994C241.098 605.358 241.323 605.729 241.694 605.817C245.274 606.661 248.92 607.279 252.536 607.665C252.565 607.658 252.587 607.658 252.609 607.658ZM285.024 605.06C285.082 605.06 285.141 605.053 285.199 605.038C288.655 604.129 292.169 602.994 295.64 601.669C295.989 601.538 296.171 601.145 296.033 600.789C295.895 600.44 295.502 600.265 295.153 600.396C291.726 601.698 288.262 602.819 284.85 603.714C284.486 603.808 284.267 604.187 284.362 604.543C284.449 604.856 284.719 605.06 285.024 605.06ZM231.399 602.71C231.675 602.71 231.937 602.535 232.039 602.259C232.17 601.902 231.981 601.516 231.631 601.385C230.045 600.818 228.43 600.178 226.815 599.501C225.061 598.759 223.307 598.017 221.561 597.267C221.219 597.122 220.812 597.274 220.666 597.624C220.521 597.973 220.673 598.373 221.023 598.519C222.776 599.268 224.53 600.018 226.283 600.752C227.921 601.444 229.558 602.084 231.166 602.666C231.239 602.695 231.319 602.71 231.399 602.71ZM305.39 597.362C305.492 597.362 305.594 597.34 305.689 597.289C308.89 595.71 312.128 593.949 315.315 592.043C315.635 591.846 315.744 591.432 315.548 591.104C315.359 590.784 314.937 590.675 314.616 590.871C311.459 592.763 308.25 594.509 305.085 596.067C304.75 596.234 304.612 596.641 304.772 596.976C304.896 597.223 305.143 597.362 305.39 597.362ZM211.265 594.255C211.527 594.255 211.782 594.102 211.891 593.847C212.044 593.505 211.884 593.105 211.535 592.952C208.202 591.497 204.877 590.027 201.573 588.55C201.224 588.397 200.831 588.55 200.671 588.892C200.518 589.234 200.671 589.642 201.013 589.794C204.324 591.279 207.649 592.749 210.996 594.204C211.083 594.233 211.171 594.255 211.265 594.255ZM324.119 586.185C324.257 586.185 324.388 586.149 324.512 586.062C327.43 584.01 330.377 581.798 333.273 579.477C333.564 579.237 333.615 578.815 333.382 578.516C333.142 578.225 332.712 578.174 332.421 578.407C329.547 580.706 326.622 582.911 323.734 584.941C323.428 585.159 323.348 585.582 323.566 585.894C323.69 586.084 323.901 586.185 324.119 586.185ZM191.379 585.341C191.641 585.341 191.882 585.196 191.998 584.941C192.158 584.599 192.005 584.199 191.663 584.039C188.353 582.511 185.056 580.961 181.782 579.404C181.447 579.251 181.033 579.382 180.873 579.724C180.713 580.059 180.851 580.466 181.193 580.634C184.474 582.198 187.77 583.748 191.088 585.276C191.183 585.32 191.278 585.341 191.379 585.341ZM171.661 575.926C171.908 575.926 172.156 575.788 172.272 575.548C172.44 575.213 172.301 574.798 171.967 574.631C168.692 573.008 165.447 571.371 162.224 569.712C161.896 569.545 161.482 569.668 161.307 570.01C161.14 570.345 161.271 570.753 161.605 570.927C164.829 572.586 168.081 574.231 171.363 575.853C171.457 575.904 171.559 575.926 171.661 575.926ZM341.167 572.564C341.327 572.564 341.495 572.506 341.626 572.39C344.303 569.989 346.981 567.457 349.593 564.866C349.862 564.597 349.862 564.168 349.6 563.906C349.339 563.637 348.909 563.637 348.64 563.898C346.042 566.474 343.379 568.985 340.723 571.371C340.447 571.626 340.418 572.055 340.673 572.332C340.796 572.484 340.978 572.564 341.167 572.564ZM152.255 565.914C152.495 565.914 152.728 565.783 152.852 565.557C153.034 565.223 152.91 564.815 152.575 564.633C149.359 562.902 146.172 561.141 143.022 559.358C142.694 559.176 142.28 559.285 142.09 559.62C141.909 559.947 142.018 560.362 142.352 560.551C145.51 562.341 148.705 564.095 151.928 565.834C152.03 565.885 152.146 565.914 152.255 565.914ZM356.695 557.212C356.877 557.212 357.059 557.139 357.197 556.993C359.62 554.374 362.065 551.616 364.466 548.808C364.706 548.524 364.677 548.095 364.386 547.847C364.102 547.607 363.673 547.643 363.425 547.927C361.039 550.729 358.608 553.464 356.193 556.069C355.938 556.346 355.953 556.775 356.229 557.03C356.36 557.153 356.527 557.212 356.695 557.212ZM133.243 555.152C133.475 555.152 133.701 555.036 133.825 554.818C134.014 554.498 133.912 554.076 133.585 553.886C130.412 551.995 127.283 550.081 124.293 548.189C123.965 548 123.551 548.087 123.347 548.4C123.151 548.72 123.245 549.142 123.558 549.346C126.563 551.238 129.699 553.166 132.886 555.058C133.002 555.116 133.126 555.152 133.243 555.152ZM114.776 543.496C114.994 543.496 115.212 543.387 115.343 543.19C115.554 542.877 115.467 542.455 115.154 542.244C112.12 540.214 109.107 538.126 106.19 536.045C105.891 535.82 105.462 535.892 105.237 536.205C105.018 536.511 105.091 536.94 105.397 537.158C108.322 539.254 111.349 541.342 114.397 543.387C114.514 543.46 114.645 543.496 114.776 543.496ZM370.876 540.607C371.073 540.607 371.276 540.52 371.415 540.345C373.619 537.559 375.86 534.641 378.072 531.658C378.298 531.352 378.232 530.93 377.934 530.704C377.628 530.486 377.206 530.544 376.981 530.843C374.776 533.811 372.542 536.729 370.345 539.494C370.112 539.792 370.163 540.214 370.454 540.455C370.578 540.556 370.731 540.607 370.876 540.607ZM97.0217 530.792C97.2254 530.792 97.4291 530.697 97.5601 530.523C97.7857 530.224 97.7347 529.795 97.4364 529.569C94.5405 527.35 91.6664 525.065 88.9087 522.788C88.6177 522.548 88.1884 522.591 87.9483 522.875C87.7081 523.166 87.7518 523.596 88.0356 523.836C90.8078 526.128 93.6892 528.42 96.5997 530.653C96.7306 530.741 96.8762 530.792 97.0217 530.792ZM383.893 523.064C384.112 523.064 384.323 522.963 384.453 522.773C386.513 519.819 388.572 516.763 390.58 513.707C390.791 513.394 390.696 512.972 390.384 512.769C390.071 512.565 389.649 512.652 389.438 512.965C387.437 516.014 385.385 519.055 383.333 522.002C383.115 522.308 383.195 522.737 383.5 522.948C383.624 523.028 383.755 523.064 383.893 523.064ZM80.1991 516.872C80.3883 516.872 80.5702 516.792 80.7084 516.647C80.9558 516.37 80.934 515.934 80.6575 515.686C77.9216 513.234 75.2513 510.739 72.7046 508.257C72.4354 507.995 71.9988 508.003 71.7441 508.265C71.4822 508.534 71.4895 508.963 71.7514 509.225C74.3126 511.721 76.9976 514.238 79.748 516.698C79.8717 516.814 80.039 516.872 80.1991 516.872ZM395.884 504.808C396.11 504.808 396.336 504.692 396.467 504.488C398.358 501.432 400.265 498.282 402.12 495.124C402.309 494.796 402.2 494.382 401.88 494.192C401.56 494.003 401.138 494.112 400.949 494.433C399.1 497.583 397.201 500.726 395.317 503.775C395.12 504.095 395.215 504.517 395.535 504.714C395.637 504.772 395.761 504.808 395.884 504.808ZM64.5989 501.614C64.7663 501.614 64.9336 501.556 65.0646 501.432C65.3411 501.178 65.3556 500.748 65.0937 500.472C62.6052 497.809 60.175 495.066 57.8684 492.337C57.621 492.053 57.1917 492.017 56.908 492.257C56.6242 492.497 56.5805 492.934 56.8279 493.217C59.149 495.968 61.5939 498.725 64.0969 501.403C64.2351 501.541 64.417 501.614 64.5989 501.614ZM406.952 485.97C407.192 485.97 407.424 485.847 407.548 485.621C409.287 482.507 411.041 479.269 412.772 476.009C412.947 475.674 412.823 475.267 412.489 475.085C412.154 474.918 411.747 475.034 411.565 475.369C409.84 478.621 408.087 481.845 406.355 484.952C406.173 485.279 406.289 485.694 406.617 485.883C406.726 485.941 406.842 485.97 406.952 485.97ZM50.5413 484.944C50.6868 484.944 50.8323 484.901 50.956 484.806C51.2544 484.581 51.3126 484.151 51.087 483.853C48.9042 480.964 46.7795 477.996 44.7713 475.012C44.5602 474.699 44.1382 474.612 43.8254 474.83C43.5125 475.041 43.4324 475.464 43.6435 475.776C45.659 478.781 47.7982 481.772 50.0028 484.682C50.1338 484.85 50.3376 484.944 50.5413 484.944ZM38.3828 466.841C38.4992 466.841 38.6229 466.812 38.732 466.747C39.0594 466.557 39.1613 466.135 38.9721 465.815C37.124 462.694 35.3559 459.485 33.7114 456.283C33.5368 455.941 33.1293 455.81 32.7946 455.985C32.4599 456.16 32.329 456.567 32.4963 456.902C34.1553 460.125 35.938 463.363 37.8007 466.507C37.9244 466.725 38.1499 466.841 38.3828 466.841ZM417.189 466.667C417.437 466.667 417.677 466.528 417.8 466.288C419.43 463.05 421.046 459.776 422.632 456.473C422.792 456.138 422.654 455.73 422.312 455.563C421.962 455.41 421.562 455.541 421.402 455.883C419.816 459.179 418.208 462.439 416.578 465.67C416.411 466.004 416.542 466.412 416.884 466.587C416.978 466.645 417.08 466.667 417.189 466.667ZM28.4144 447.436C28.509 447.436 28.5963 447.414 28.6909 447.377C29.0328 447.232 29.1929 446.824 29.0401 446.482C27.5922 443.194 26.2315 439.803 24.9727 436.405C24.8417 436.056 24.4561 435.866 24.0996 436.005C23.7503 436.136 23.5684 436.529 23.6994 436.878C24.9582 440.298 26.3406 443.717 27.7959 447.028C27.905 447.283 28.1524 447.436 28.4144 447.436ZM426.655 446.977C426.91 446.977 427.165 446.832 427.274 446.577C428.78 443.274 430.272 439.948 431.742 436.594C431.887 436.252 431.734 435.852 431.385 435.699C431.043 435.561 430.643 435.706 430.49 436.056C429.027 439.403 427.543 442.721 426.037 446.017C425.877 446.359 426.03 446.766 426.372 446.919C426.459 446.963 426.554 446.977 426.655 446.977ZM20.8762 426.975C20.9417 426.975 21.0072 426.968 21.0727 426.946C21.4292 426.837 21.6402 426.458 21.5311 426.094C20.4906 422.646 19.5374 419.117 18.7006 415.609C18.6133 415.246 18.2641 415.02 17.8784 415.1C17.5146 415.187 17.2818 415.559 17.3764 415.922C18.2204 419.466 19.1809 423.017 20.2214 426.487C20.3087 426.786 20.5779 426.975 20.8762 426.975ZM435.401 426.96C435.671 426.96 435.918 426.8 436.027 426.538C437.424 423.184 438.792 419.808 440.146 416.41C440.284 416.061 440.116 415.66 439.767 415.522C439.425 415.391 439.025 415.551 438.88 415.9C437.533 419.291 436.165 422.667 434.768 426.014C434.623 426.356 434.79 426.757 435.14 426.902C435.227 426.939 435.314 426.96 435.401 426.96ZM443.464 406.652C443.74 406.652 443.995 406.485 444.097 406.216C445.384 402.818 446.643 399.405 447.88 395.978C448.011 395.622 447.822 395.236 447.473 395.105C447.109 394.981 446.731 395.163 446.6 395.513C445.37 398.932 444.111 402.338 442.83 405.728C442.699 406.085 442.874 406.471 443.223 406.609C443.303 406.638 443.383 406.652 443.464 406.652ZM15.812 405.765C15.8556 405.765 15.892 405.765 15.9284 405.757C16.2995 405.692 16.5469 405.335 16.4814 404.964C15.8556 401.457 15.3099 397.841 14.8588 394.217C14.8151 393.839 14.4586 393.57 14.1021 393.621C13.7237 393.664 13.4618 394.006 13.5054 394.378C13.9565 398.03 14.5095 401.668 15.1426 405.197C15.2008 405.539 15.4845 405.765 15.812 405.765ZM450.849 386.134C451.133 386.134 451.395 385.959 451.496 385.675C452.675 382.233 453.825 378.777 454.96 375.314C455.076 374.957 454.88 374.572 454.523 374.455C454.16 374.339 453.781 374.535 453.665 374.892C452.537 378.348 451.38 381.797 450.209 385.231C450.085 385.588 450.274 385.973 450.631 386.097C450.703 386.126 450.783 386.134 450.849 386.134ZM13.1343 384.133C13.1489 384.133 13.1634 384.133 13.1853 384.133C13.5636 384.103 13.8401 383.783 13.8183 383.405C13.5636 379.84 13.3963 376.18 13.3162 372.542C13.309 372.171 13.0397 371.894 12.6177 371.879C12.2394 371.887 11.941 372.2 11.9556 372.578C12.0356 376.238 12.2103 379.92 12.4649 383.507C12.4795 383.856 12.7778 384.133 13.1343 384.133ZM457.608 365.375C457.9 365.375 458.169 365.185 458.256 364.894L458.416 364.37C459.478 360.907 460.526 357.378 461.516 353.893C461.618 353.529 461.407 353.151 461.05 353.049C460.672 352.947 460.308 353.158 460.206 353.514C459.216 356.992 458.176 360.514 457.106 363.97L456.954 364.487C456.837 364.843 457.041 365.229 457.397 365.338C457.47 365.36 457.543 365.375 457.608 365.375ZM12.7778 362.319C13.1343 362.319 13.4399 362.035 13.4618 361.671C13.6509 358.113 13.9711 354.468 14.4295 350.859C14.4804 350.487 14.2112 350.145 13.8401 350.095C13.4327 350.065 13.1271 350.313 13.0761 350.684C12.6177 354.329 12.2903 358.004 12.1011 361.598C12.0793 361.977 12.3703 362.297 12.7487 362.311C12.756 362.319 12.7705 362.319 12.7778 362.319ZM463.742 343.852C464.048 343.852 464.324 343.648 464.404 343.342C465.329 339.821 466.209 336.277 467.06 332.733C467.148 332.362 466.922 331.999 466.558 331.911C466.202 331.824 465.823 332.05 465.736 332.413C464.885 335.957 464.004 339.479 463.087 342.993C462.993 343.357 463.211 343.728 463.575 343.83C463.626 343.844 463.684 343.852 463.742 343.852ZM15.4773 340.686C15.7974 340.686 16.0812 340.461 16.1467 340.133C16.8234 336.663 17.6238 333.09 18.5478 329.532C18.6424 329.168 18.4241 328.797 18.0603 328.702C17.7038 328.615 17.3254 328.826 17.2308 329.19C16.2995 332.777 15.4845 336.372 14.8079 339.871C14.7351 340.243 14.9752 340.599 15.3463 340.672C15.39 340.686 15.4336 340.686 15.4773 340.686ZM468.814 322.612C469.127 322.612 469.41 322.394 469.476 322.074C470.24 318.538 470.975 314.929 471.659 311.356C471.732 310.985 471.491 310.628 471.12 310.563C470.764 310.468 470.393 310.73 470.327 311.101C469.643 314.667 468.908 318.261 468.152 321.79C468.072 322.161 468.304 322.518 468.676 322.598C468.719 322.605 468.77 322.612 468.814 322.612ZM20.9344 319.564C21.2182 319.564 21.4874 319.382 21.582 319.091C22.6662 315.707 23.8667 312.251 25.1619 308.824C25.2929 308.467 25.1182 308.082 24.769 307.943C24.4197 307.791 24.0268 307.987 23.8886 308.336C22.5789 311.785 21.371 315.271 20.2796 318.676C20.1631 319.032 20.3596 319.418 20.7234 319.534C20.7962 319.556 20.8617 319.564 20.9344 319.564ZM472.932 301.155C473.26 301.155 473.551 300.915 473.602 300.587C474.22 296.935 474.78 293.304 475.275 289.775C475.326 289.404 475.071 289.054 474.7 289.004C474.351 288.945 473.987 289.207 473.929 289.578C473.434 293.093 472.867 296.716 472.263 300.354C472.197 300.725 472.452 301.075 472.823 301.14C472.859 301.155 472.896 301.155 472.932 301.155ZM28.6254 299.139C28.8873 299.139 29.142 298.986 29.2511 298.732C30.6918 295.414 32.2198 292.089 33.7988 288.836C33.9661 288.501 33.8206 288.094 33.4859 287.927C33.1512 287.759 32.7437 287.898 32.5764 288.239C30.9901 291.507 29.4549 294.854 27.9996 298.186C27.8468 298.535 28.0069 298.928 28.3562 299.081C28.4435 299.125 28.5381 299.139 28.6254 299.139ZM476.003 279.53C476.345 279.53 476.636 279.275 476.679 278.926C477.109 275.251 477.48 271.584 477.793 268.041C477.822 267.662 477.545 267.335 477.174 267.299C476.73 267.262 476.468 267.546 476.432 267.917C476.119 271.453 475.748 275.106 475.319 278.773C475.275 279.144 475.544 279.486 475.915 279.53C475.952 279.523 475.981 279.53 476.003 279.53ZM38.1645 279.501C38.4046 279.501 38.6374 279.37 38.7684 279.144C40.4638 275.979 42.261 272.785 44.1019 269.642C44.291 269.321 44.1819 268.899 43.8545 268.71C43.5343 268.514 43.1123 268.623 42.9231 268.958C41.075 272.115 39.2705 275.324 37.5605 278.504C37.3859 278.831 37.5096 279.246 37.837 279.428C37.9462 279.472 38.0553 279.501 38.1645 279.501ZM49.2025 260.648C49.428 260.648 49.6463 260.539 49.7773 260.328C51.6982 257.301 53.7137 254.238 55.7656 251.218C55.9766 250.905 55.8966 250.483 55.5837 250.272C55.2781 250.061 54.8488 250.141 54.6378 250.454C52.5786 253.481 50.5486 256.559 48.6277 259.6C48.4239 259.921 48.5185 260.335 48.8387 260.539C48.9478 260.612 49.0715 260.648 49.2025 260.648ZM477.924 257.76C478.28 257.76 478.578 257.483 478.608 257.119C478.826 253.423 478.993 249.741 479.088 246.183C479.095 245.805 478.804 245.492 478.426 245.485C478.418 245.485 478.411 245.485 478.404 245.485C478.033 245.485 477.734 245.776 477.72 246.147C477.625 249.69 477.458 253.357 477.24 257.039C477.218 257.418 477.509 257.738 477.88 257.76C477.902 257.76 477.916 257.76 477.924 257.76ZM61.492 242.596C61.703 242.596 61.9067 242.501 62.045 242.319C64.1842 239.38 66.3889 236.448 68.5936 233.595C68.8191 233.297 68.7682 232.868 68.4699 232.635C68.1715 232.409 67.7495 232.453 67.5094 232.758C65.2974 235.618 63.0927 238.565 60.9463 241.512C60.728 241.817 60.7935 242.247 61.0918 242.465C61.2155 242.552 61.3537 242.596 61.492 242.596ZM478.542 235.924C478.92 235.924 479.226 235.618 479.226 235.24C479.212 231.58 479.131 227.898 478.986 224.296C478.971 223.925 478.68 223.612 478.28 223.641C477.902 223.656 477.611 223.976 477.625 224.347C477.771 227.934 477.851 231.594 477.865 235.24C477.865 235.618 478.164 235.924 478.542 235.924ZM74.8511 225.308C75.0476 225.308 75.244 225.22 75.375 225.06C77.6452 222.295 80.0026 219.487 82.3965 216.714C82.6439 216.431 82.6075 216.001 82.3237 215.754C82.04 215.507 81.6034 215.543 81.3633 215.827C78.9621 218.606 76.5901 221.422 74.3199 224.202C74.0798 224.493 74.1235 224.922 74.4145 225.162C74.5455 225.257 74.6983 225.308 74.8511 225.308ZM477.662 214.102C477.676 214.102 477.698 214.102 477.713 214.102C478.091 214.073 478.367 213.746 478.338 213.367C478.055 209.693 477.683 206.026 477.254 202.475C477.211 202.104 476.905 201.856 476.497 201.878C476.126 201.922 475.857 202.264 475.901 202.635C476.33 206.171 476.694 209.817 476.978 213.469C477.007 213.833 477.305 214.102 477.662 214.102ZM89.1343 208.769C89.3234 208.769 89.5053 208.696 89.6363 208.543C92.0811 205.858 94.5841 203.173 97.0799 200.569C97.3418 200.299 97.3273 199.863 97.0581 199.608C96.7816 199.353 96.3523 199.353 96.0976 199.63C93.5946 202.242 91.0916 204.934 88.6395 207.634C88.3848 207.91 88.4066 208.34 88.6831 208.594C88.8068 208.711 88.9669 208.769 89.1343 208.769ZM104.225 192.972C104.4 192.972 104.574 192.907 104.705 192.776C107.281 190.207 109.915 187.646 112.52 185.165C112.796 184.903 112.804 184.474 112.542 184.204C112.28 183.935 111.851 183.921 111.581 184.183C108.962 186.671 106.328 189.239 103.745 191.815C103.476 192.084 103.476 192.514 103.745 192.776C103.876 192.907 104.05 192.972 104.225 192.972ZM475.028 192.426C475.064 192.426 475.1 192.426 475.137 192.419C475.508 192.361 475.763 192.004 475.697 191.633C475.093 188.01 474.395 184.394 473.623 180.879C473.543 180.515 473.187 180.283 472.808 180.363C472.437 180.443 472.212 180.806 472.292 181.177C473.056 184.663 473.754 188.264 474.358 191.866C474.409 192.194 474.7 192.426 475.028 192.426ZM120.058 177.903C120.225 177.903 120.386 177.845 120.517 177.721C123.201 175.284 125.952 172.832 128.695 170.452C128.979 170.205 129.008 169.776 128.76 169.492C128.513 169.201 128.084 169.186 127.8 169.426C125.05 171.813 122.292 174.265 119.6 176.717C119.323 176.972 119.301 177.401 119.556 177.678C119.687 177.823 119.869 177.903 120.058 177.903ZM470.327 171.107C470.385 171.107 470.451 171.1 470.509 171.085C470.873 170.984 471.084 170.605 470.982 170.241C469.993 166.691 468.901 163.169 467.73 159.778C467.606 159.422 467.213 159.225 466.864 159.356C466.507 159.48 466.318 159.865 466.442 160.222C467.599 163.591 468.683 167.083 469.665 170.612C469.76 170.911 470.029 171.107 470.327 171.107ZM136.59 163.533C136.742 163.533 136.895 163.482 137.026 163.373C139.777 161.088 142.629 158.774 145.503 156.489C145.801 156.256 145.845 155.827 145.612 155.529C145.372 155.238 144.943 155.194 144.652 155.42C141.763 157.712 138.903 160.033 136.146 162.325C135.862 162.565 135.818 162.994 136.059 163.285C136.204 163.453 136.4 163.533 136.59 163.533ZM463.204 150.486C463.291 150.486 463.378 150.472 463.466 150.436C463.815 150.29 463.975 149.89 463.83 149.541C462.403 146.135 460.846 142.796 459.216 139.594C459.049 139.259 458.642 139.121 458.3 139.296C457.965 139.463 457.834 139.878 458.001 140.212C459.617 143.385 461.159 146.696 462.571 150.064C462.68 150.334 462.935 150.486 463.204 150.486ZM153.718 149.948C153.863 149.948 154.009 149.904 154.133 149.81C157.05 147.598 159.997 145.415 162.886 143.319C163.191 143.101 163.257 142.672 163.039 142.366C162.82 142.061 162.391 141.988 162.085 142.213C159.19 144.309 156.235 146.499 153.303 148.718C153.005 148.944 152.947 149.373 153.172 149.672C153.303 149.853 153.507 149.948 153.718 149.948ZM171.384 137.156C171.515 137.156 171.654 137.12 171.77 137.04C174.79 134.959 177.838 132.907 180.822 130.943C181.135 130.732 181.222 130.317 181.018 129.997C180.814 129.691 180.392 129.604 180.072 129.8C177.082 131.765 174.033 133.824 170.999 135.912C170.686 136.131 170.613 136.553 170.824 136.858C170.962 137.055 171.173 137.156 171.384 137.156ZM453.279 131.066C453.403 131.066 453.527 131.037 453.636 130.964C453.956 130.768 454.058 130.346 453.861 130.026C451.94 126.897 449.881 123.834 447.735 120.923C447.509 120.625 447.08 120.559 446.781 120.778C446.476 121.003 446.418 121.425 446.636 121.731C448.761 124.612 450.798 127.639 452.697 130.739C452.828 130.95 453.046 131.066 453.279 131.066ZM189.648 125.158C189.771 125.158 189.895 125.122 190.012 125.056C193.118 123.113 196.255 121.207 199.332 119.388C199.66 119.199 199.762 118.777 199.572 118.457C199.383 118.129 198.961 118.02 198.641 118.216C195.556 120.043 192.413 121.956 189.291 123.899C188.971 124.096 188.876 124.518 189.073 124.838C189.197 125.049 189.422 125.158 189.648 125.158ZM208.457 114.025C208.573 114.025 208.682 113.996 208.791 113.938C211.964 112.163 215.187 110.416 218.374 108.736C218.709 108.561 218.833 108.146 218.658 107.812C218.476 107.477 218.069 107.346 217.734 107.52C214.532 109.209 211.294 110.962 208.115 112.745C207.787 112.927 207.671 113.341 207.853 113.669C207.984 113.902 208.217 114.025 208.457 114.025ZM440.313 113.538C440.473 113.538 440.633 113.48 440.764 113.363C441.048 113.116 441.07 112.687 440.822 112.403C438.407 109.681 435.831 107.04 433.168 104.552C432.891 104.29 432.462 104.304 432.207 104.581C431.953 104.857 431.967 105.287 432.236 105.541C434.87 108.001 437.417 110.613 439.804 113.305C439.942 113.458 440.124 113.538 440.313 113.538ZM227.79 103.853C227.891 103.853 227.993 103.831 228.088 103.78C231.369 102.165 234.68 100.586 237.933 99.0873C238.275 98.9273 238.427 98.5198 238.267 98.1851C238.107 97.8431 237.707 97.6903 237.365 97.8504C234.098 99.3493 230.78 100.936 227.484 102.558C227.142 102.725 227.004 103.133 227.171 103.468C227.302 103.715 227.542 103.853 227.79 103.853ZM424.393 98.6726C424.596 98.6726 424.8 98.5853 424.931 98.4034C425.157 98.1051 425.106 97.6758 424.807 97.4502C421.94 95.2455 418.914 93.1354 415.814 91.1781C415.494 90.9817 415.072 91.069 414.875 91.3891C414.672 91.7093 414.766 92.1313 415.086 92.3278C418.15 94.2632 421.147 96.3515 423.978 98.5344C424.102 98.629 424.247 98.6726 424.393 98.6726ZM247.646 94.7362C247.734 94.7362 247.821 94.7216 247.916 94.6852C251.255 93.2664 254.653 91.8839 258.015 90.5815C258.364 90.4432 258.539 90.0503 258.401 89.7011C258.262 89.3518 257.869 89.1917 257.52 89.3154C254.144 90.6251 250.731 92.0149 247.377 93.4337C247.028 93.5865 246.868 93.9795 247.013 94.3287C247.13 94.5834 247.384 94.7362 247.646 94.7362ZM405.962 87.0525C406.209 87.0525 406.449 86.9143 406.566 86.6814C406.733 86.3467 406.602 85.9393 406.268 85.7646C403.051 84.1275 399.697 82.5995 396.292 81.217C395.95 81.0642 395.55 81.2388 395.404 81.5954C395.266 81.9446 395.433 82.3375 395.783 82.4831C399.151 83.851 402.477 85.3644 405.656 86.9797C405.751 87.0234 405.86 87.0525 405.962 87.0525ZM268.02 86.8415C268.092 86.8415 268.172 86.8269 268.245 86.8051C271.658 85.6045 275.143 84.4476 278.592 83.3708C278.949 83.2616 279.152 82.876 279.036 82.5194C278.927 82.1629 278.541 81.9519 278.185 82.0683C274.721 83.1452 271.221 84.3021 267.787 85.51C267.43 85.6336 267.248 86.0266 267.372 86.3831C267.474 86.6596 267.736 86.8415 268.02 86.8415ZM288.881 80.3511C288.939 80.3511 288.997 80.3439 289.055 80.3293C292.599 79.3761 296.157 78.4957 299.628 77.7099C299.991 77.6298 300.224 77.266 300.144 76.8949C300.064 76.5311 299.722 76.2983 299.329 76.3783C295.837 77.1642 292.257 78.0518 288.699 79.0123C288.335 79.1142 288.124 79.4853 288.218 79.8491C288.306 80.1547 288.582 80.3511 288.881 80.3511ZM385.778 78.845C386.069 78.845 386.338 78.6558 386.425 78.372C386.542 78.0155 386.338 77.6298 385.982 77.5207C382.533 76.4365 378.975 75.4615 375.409 74.6248C375.053 74.5374 374.674 74.763 374.594 75.1341C374.507 75.4979 374.732 75.869 375.104 75.949C378.64 76.7785 382.161 77.739 385.574 78.8158C385.64 78.8377 385.712 78.845 385.778 78.845ZM310.185 75.5707C310.222 75.5707 310.265 75.5707 310.302 75.5634C313.882 74.9231 317.498 74.3774 321.063 73.9262C321.434 73.8753 321.704 73.5406 321.653 73.1622C321.602 72.7911 321.296 72.5438 320.889 72.5729C317.301 73.024 313.656 73.577 310.054 74.2173C309.683 74.2828 309.436 74.6393 309.501 75.0104C309.574 75.3451 309.865 75.5707 310.185 75.5707ZM364.531 73.9262C364.866 73.9262 365.157 73.6788 365.208 73.3441C365.266 72.9731 365.004 72.6238 364.633 72.5729C361.111 72.0563 357.437 71.6779 353.719 71.4305C353.29 71.3577 353.013 71.6924 352.998 72.0635C352.969 72.4419 353.253 72.7621 353.632 72.7839C357.313 73.024 360.951 73.4096 364.437 73.9117C364.466 73.919 364.495 73.9262 364.531 73.9262ZM331.847 72.8785C331.861 72.8785 331.876 72.8785 331.897 72.8785C335.55 72.6311 339.203 72.4928 342.761 72.471C343.139 72.471 343.445 72.1654 343.438 71.787C343.438 71.4087 343.132 71.1104 342.754 71.1104C339.166 71.1322 335.477 71.2704 331.803 71.5178C331.425 71.5396 331.148 71.8671 331.17 72.2454C331.192 72.602 331.49 72.8785 331.847 72.8785Z" fill="#D8D5DB"/>
<path d="M180.705 300.464L216.242 277.274C216.242 277.274 251.568 342.28 268.98 380.305C295.466 361.977 342.019 328.026 355.756 313.11C355.793 313.073 355.836 313.044 355.873 313.008C355.334 307.267 356.367 298.033 357.881 292.794C357.91 292.656 357.917 292.547 357.961 292.401C358.041 292.154 358.143 291.965 358.23 291.725C358.332 291.419 358.434 291.034 358.543 290.772C358.834 290.066 359.06 289.556 359.256 289.113C362.916 281.087 368.701 277.893 372.113 267.175C374.492 259.702 381.339 265.974 380.67 271.366C380.67 271.366 379.651 274.866 378.502 278.235C383.035 276.081 386.949 274.771 389.583 275.659C392.778 276.736 396.35 292.947 394.815 298.739C393.309 304.444 377.643 322.881 371.778 326.054C371.356 326.287 370.905 326.41 370.447 326.483C360.988 339.69 298.463 413.95 273.324 426.771C257.753 434.717 246.06 427.87 242.153 417.756C230.271 398.452 194.305 335.659 180.705 300.464Z" fill="white"/>
<path d="M175.874 260.524C170.49 287.621 192.144 364.727 192.144 364.727L258.379 332.217C258.372 332.217 190.077 189.05 175.874 260.524Z" fill="#6DB8E2"/>
<path d="M38.8633 616.607C38.8633 617.48 38.8633 618.354 38.9724 619.227C51.4584 621.955 64.7593 623.753 78.6059 624.517C129.525 627.623 188.076 618.084 244.496 599.006C242.531 569.894 239.483 539.531 234.79 519.033L78.766 522.14L66.5565 522.41L43.3309 522.846L41.9702 522.897C40.8788 535.325 39.5691 585.647 38.8633 616.607Z" fill="#273C8A"/>
<path d="M127.975 228.196C85.1615 229.608 70.6819 244.058 63.3038 269.059C54.9216 297.444 40.1582 468.864 40.1582 526.142C40.1582 526.142 168.299 535.223 239.279 523.588C217.028 448.403 214.62 313.226 214.169 272.952C213.834 242.734 182.255 226.406 127.975 228.196Z" fill="#7BD0FF"/>
<path d="M165.702 158.105C169.922 154.932 191.918 157.814 185.588 113.014C183.274 96.6717 167.928 107.579 157.065 109.762C146.202 111.944 153.107 158.912 153.107 158.912L165.702 158.105Z" fill="#232323"/>
<path d="M110.912 147.372C112.738 159.247 116.391 223.489 114.87 238.405C113.349 253.321 185.507 257.585 176.063 241.148C166.626 224.704 173.32 170.212 173.32 170.212L110.912 147.372Z" fill="white"/>
<path d="M115.911 149.184L173.327 170.212C173.327 170.212 169.449 201.951 171.785 224.304C128.011 220.92 116.777 165.628 116.035 154.976C115.911 152.975 115.845 151.032 115.911 149.184Z" fill="#232323"/>
<path d="M191.751 145.349C197.07 182.021 206.107 218.592 161.649 212.567C117.191 206.542 110.286 149.555 110.417 138.801C111.109 81.4353 181.295 73.235 191.751 145.349Z" fill="white"/>
<path d="M105.63 99.6622C105.579 99.5239 105.455 99.422 105.411 99.2765C103.963 94.7798 106.626 89.7665 106.736 89.5555L109.137 90.8434C109.115 90.887 106.932 95.0345 108.002 98.4106C117.737 87.6564 176.558 92.2404 187.014 104.392C200.308 119.832 159.43 112.876 136.401 108.976C133.177 122.458 118.552 144.796 114.339 147.969L101.744 148.777C101.737 148.791 94.8608 102.027 105.63 99.6622Z" fill="#232323"/>
<path d="M7.47352 544.522C4.65035 528.827 -4.64864 432.454 2.87495 405.052C2.88223 405.001 2.87496 404.964 2.88951 404.913C8.14293 387.763 34.2427 313.83 53.139 278.824L93.8566 290.772C93.8566 290.772 59.7821 379.709 43.2579 411.171C43.2069 412.015 43.2069 412.844 43.0396 413.718C40.6093 426.691 27.0247 509.014 27.1775 539.341C30.1898 540.178 33.2531 541.757 35.6906 544.544C38.7903 548.087 44.2038 558.267 43.8181 562.778C42.734 575.664 35.5742 591.002 30.67 593.542C27.6723 595.092 13.5419 586.382 10.4422 581.252C7.39347 576.203 5.03599 552.126 6.83321 545.701C6.95691 545.264 7.24796 544.908 7.47352 544.522Z" fill="white"/>
<path d="M77.5795 243.673C54.6085 259.026 15.4043 328.855 15.4043 328.855L85.2267 352.707C85.2267 352.707 138.168 203.181 77.5795 243.673Z" fill="#6DB8E2"/>
<path d="M154.322 143.538C154.177 145.32 155.144 146.856 156.483 146.965C157.822 147.074 159.023 145.713 159.168 143.923C159.314 142.141 158.346 140.605 157.007 140.496C155.668 140.387 154.468 141.748 154.322 143.538Z" fill="#232323"/>
<path d="M182.641 144.287C182.495 146.07 183.463 147.605 184.802 147.714C186.141 147.823 187.341 146.463 187.487 144.673C187.632 142.89 186.665 141.355 185.326 141.246C183.98 141.144 182.779 142.504 182.641 144.287Z" fill="#232323"/>
<path d="M147.358 133.504C151.149 127.683 157.669 129.065 157.734 129.087L158.331 126.424C157.989 126.351 149.891 124.634 145.074 132.012L147.358 133.504Z" fill="#232323"/>
<path d="M190.223 136.902L192.697 135.767C189.022 127.748 180.764 128.265 180.414 128.279L180.603 131.001C180.865 130.979 187.341 130.644 190.223 136.902Z" fill="#232323"/>
<path d="M163.424 177.299C165.229 177.299 166.379 177.096 166.422 177.088L165.927 174.411C165.418 174.505 153.456 176.535 146.791 165.439L144.455 166.843C149.956 175.997 158.811 177.299 163.424 177.299Z" fill="#232323"/>
<path d="M184.38 164.879L177.445 141.238L174.833 142.002L180.727 162.107L171.181 161.976L171.137 164.704L184.38 164.879Z" fill="#232323"/>
<path d="M360.96 310.402L364.522 311.99L396.525 240.185L392.963 238.598L360.96 310.402Z" fill="#273C8A"/>
<path d="M121.695 152.036C125.712 161.081 130.74 169.841 118.13 171.471C105.52 173.101 99.6558 158.941 98.9427 156.169C95.13 141.369 113.801 134.246 121.695 152.036Z" fill="white"/>
<path d="M310.324 0H438.61C443.078 0 446.701 3.62355 446.701 8.09114V53.7711C446.701 58.2387 443.078 61.8623 438.61 61.8623H430.796L421.984 73.6352C420.027 76.2473 415.916 75.4688 415.057 72.3182L412.198 61.8623H310.324C305.856 61.8623 302.232 58.2387 302.232 53.7711V8.09114C302.232 3.62355 305.856 0 310.324 0Z" fill="#273C8A"/>
<path d="M434.099 11.9839H320.678V14.7125H434.099V11.9839Z" fill="white"/>
<path d="M434.1 24.8846H359.206V27.6132H434.1V24.8846Z" fill="white"/>
<path d="M434.099 37.7853H340.483V40.5139H434.099V37.7853Z" fill="white"/>
<path d="M340.484 152.851H438.611C443.078 152.851 446.702 156.475 446.702 160.942V206.622C446.702 211.09 443.078 214.713 438.611 214.713H430.796L421.985 226.486C420.027 229.099 415.916 228.32 415.058 225.169L412.198 214.713H340.484C336.016 214.713 332.393 211.09 332.393 206.622V160.942C332.393 156.475 336.016 152.851 340.484 152.851Z" fill="#F35A59"/>
<path d="M434.1 164.835H381.893V167.564H434.1V164.835Z" fill="white"/>
<path d="M371.088 164.835H353.086V167.564H371.088V164.835Z" fill="white"/>
<path d="M434.1 177.736H397.013V180.464H434.1V177.736Z" fill="white"/>
<path d="M434.1 190.637H362.451V193.365H434.1V190.637Z" fill="white"/>
<path d="M373.343 76.3856H253.882C249.415 76.3856 245.791 80.0091 245.791 84.4767V130.157C245.791 134.624 249.415 138.248 253.882 138.248H261.697L270.508 150.021C272.466 152.633 276.577 151.854 277.435 148.704L280.295 138.248H373.35C377.818 138.248 381.441 134.624 381.441 130.157V84.4767C381.434 80.0091 377.81 76.3856 373.343 76.3856Z" fill="#FFC84D"/>
<path d="M306.286 88.3695H258.394V91.0981H306.286V88.3695Z" fill="white"/>
<path d="M362.45 101.27H258.393V103.999H362.45V101.27Z" fill="white"/>
<path d="M309.523 114.171H258.393V116.9H309.523V114.171Z" fill="white"/>
<path d="M341.568 114.171H318.16V116.9H341.568V114.171Z" fill="white"/>
</svg>
