<svg width="643" height="584" viewBox="0 0 643 584" fill="none" xmlns="http://www.w3.org/2000/svg">
<path d="M382.194 1.02516C378.146 0.653517 373.971 0.408394 369.867 0.353043C369.44 0.353043 369.068 0.661426 369.068 1.08843C369.068 1.51543 369.376 1.88707 369.803 1.88707C373.915 1.95033 378.027 2.19546 382.076 2.5592C382.139 2.5592 382.139 2.5592 382.139 2.5592C382.566 2.5592 382.874 2.25081 382.938 1.82381C382.93 1.39681 382.629 1.02516 382.194 1.02516ZM357.539 0.53491H357.476C353.364 0.780039 349.197 1.15168 345.148 1.64194C344.721 1.7052 344.413 2.06894 344.476 2.50385C344.539 2.87549 344.848 3.17598 345.275 3.17598H345.338C349.386 2.68572 353.498 2.31408 357.61 2.06895C357.982 2.06895 358.346 1.69729 358.282 1.27029C358.274 0.898645 357.903 0.53491 357.539 0.53491ZM406.676 4.76537C402.627 3.90346 398.515 3.11272 394.53 2.49594C394.103 2.43268 393.668 2.74107 393.613 3.11272C393.549 3.53972 393.858 3.97463 394.285 4.02998C398.27 4.64676 402.319 5.38214 406.367 6.23614C406.43 6.2994 406.494 6.2994 406.494 6.2994C406.865 6.2994 407.166 6.05428 407.292 5.68263C407.348 5.25563 407.103 4.89188 406.676 4.76537ZM332.939 3.53973C328.89 4.33837 324.842 5.25563 320.912 6.36266C320.485 6.42592 320.24 6.85293 320.358 7.27993C320.422 7.58832 320.73 7.83344 321.094 7.83344H321.276C325.206 6.78967 329.254 5.8724 333.239 5.07375C333.611 5.01049 333.912 4.5835 333.856 4.1565C333.738 3.78486 333.366 3.47647 332.939 3.53973ZM430.477 11.455C426.547 10.1029 422.625 8.87723 418.695 7.7781C418.268 7.65158 417.833 7.90461 417.714 8.33161C417.588 8.70326 417.841 9.13026 418.268 9.24888C422.135 10.3559 426.12 11.5816 429.987 12.9258H430.232C430.54 12.9258 430.849 12.7439 430.967 12.4356C431.086 12.0086 430.904 11.5736 430.477 11.455ZM309.074 9.921C305.208 11.2099 301.286 12.6807 297.482 14.2147C297.055 14.3966 296.865 14.8315 297.055 15.1952C297.182 15.5036 297.482 15.6855 297.727 15.6855C297.854 15.6855 297.972 15.6855 298.036 15.6222C301.839 14.0882 305.706 12.6174 309.565 11.3285C309.936 11.202 310.182 10.775 309.992 10.4113C309.873 9.98425 309.438 9.79448 309.074 9.921ZM453.416 20.596C449.676 18.9433 445.873 17.2828 442.069 15.7488C441.697 15.6222 441.207 15.812 441.089 16.1758C440.907 16.6028 441.089 17.0377 441.516 17.2195C445.319 18.6903 449.123 20.3509 452.799 22.0035C452.926 22.0668 452.981 22.0668 453.108 22.0668C453.416 22.0668 453.725 21.8849 453.843 21.6398C454.033 21.2049 453.843 20.7779 453.416 20.596ZM287.171 19.6155C286.989 19.1885 286.554 19.062 286.127 19.2438C282.506 20.9597 278.765 22.8654 275.144 24.8265C274.772 25.0716 274.654 25.4986 274.835 25.8702C274.962 26.1786 275.262 26.2972 275.508 26.2972C275.634 26.2972 275.753 26.234 275.879 26.1707C279.501 24.2097 283.178 22.3673 286.799 20.5881C287.171 20.4062 287.361 19.9792 287.171 19.6155ZM475.502 31.8166C471.88 29.7923 468.203 27.768 464.582 25.9256C464.21 25.7437 463.72 25.9256 463.538 26.2972C463.356 26.6689 463.538 27.0959 463.909 27.341C467.531 29.1834 471.145 31.0812 474.703 33.1055C474.83 33.232 474.948 33.232 475.075 33.232C475.383 33.232 475.628 33.1055 475.747 32.8604C475.992 32.4966 475.873 32.0064 475.502 31.8166ZM265.52 31.271C265.275 30.9626 264.785 30.844 264.477 31.0259C260.982 33.1767 257.487 35.3829 254.047 37.7155C253.675 37.9607 253.62 38.4509 253.865 38.8226C253.991 39.0044 254.237 39.131 254.482 39.131C254.664 39.131 254.79 39.0677 254.909 39.0044C258.341 36.6718 261.78 34.4656 265.275 32.378C265.639 32.125 265.702 31.6347 265.52 31.271ZM496.361 45.0062C492.985 42.6102 489.553 40.3408 486.058 38.1346C485.75 37.9528 485.259 38.0081 485.014 38.3798C484.769 38.7514 484.888 39.2417 485.259 39.4235C488.691 41.6297 492.131 43.8991 495.507 46.2318C495.634 46.3583 495.816 46.3583 495.934 46.3583C496.179 46.3583 496.425 46.2951 496.551 46.0499C496.788 45.6862 496.725 45.2513 496.361 45.0062ZM245.032 45.0062C244.787 44.6978 244.297 44.5792 243.989 44.8797C240.739 47.2123 237.489 49.7901 234.176 52.3601C233.867 52.6684 233.804 53.0954 234.049 53.4671C234.231 53.649 234.421 53.7755 234.666 53.7755C234.848 53.7755 234.974 53.7122 235.156 53.5936C238.406 50.9525 241.656 48.438 244.914 46.1132C245.214 45.8681 245.278 45.3778 245.032 45.0062ZM515.924 60.1014C512.793 57.405 509.543 54.8272 506.356 52.3126C505.985 52.0675 505.494 52.1307 505.249 52.4391C505.004 52.8108 505.067 53.301 505.376 53.5462C508.626 55.9975 511.82 58.6385 514.944 61.2717C515.07 61.3982 515.252 61.4536 515.434 61.4536C515.616 61.4536 515.861 61.3271 515.988 61.1452C516.296 60.8368 516.233 60.3465 515.924 60.1014ZM225.77 60.3465C225.462 60.0381 224.971 59.9749 224.663 60.2833C222.457 62.1811 220.243 64.0867 218.1 66.0478C217.546 66.4748 217.056 66.965 216.566 67.4553C216.194 67.7637 215.767 68.0721 215.403 68.4358C215.095 68.7442 215.095 69.2345 215.34 69.5429C215.522 69.6694 215.712 69.788 215.957 69.788C216.139 69.788 216.329 69.7247 216.447 69.6061C217.119 68.9893 217.799 68.3805 218.471 67.7637L220.678 65.7394C222.33 64.2686 223.991 62.8532 225.643 61.4457C225.952 61.1452 226.015 60.6549 225.77 60.3465ZM533.961 76.9679C531.075 74.0263 528.133 71.0769 525.129 68.3172C524.82 68.0088 524.33 68.0088 524.021 68.3172C523.776 68.6256 523.776 69.1158 524.085 69.4242C527.09 72.1839 530.039 75.1255 532.854 78.0117C532.981 78.1382 533.162 78.2568 533.408 78.2568C533.589 78.2568 533.779 78.1936 533.898 78.0117C534.206 77.7033 534.206 77.213 533.961 76.9679ZM207.488 76.9047C207.18 76.5963 206.753 76.5963 206.444 76.9047C203.558 79.6643 200.616 82.6059 197.675 85.6186C197.367 85.927 197.367 86.4173 197.675 86.6624C197.801 86.8443 197.983 86.9075 198.228 86.9075C198.41 86.9075 198.6 86.8443 198.782 86.6624C201.668 83.7208 204.61 80.7714 207.496 78.0117C207.796 77.7033 207.796 77.213 207.488 76.9047ZM550.282 95.495C547.704 92.245 545.008 89.0504 542.303 85.9903C542.058 85.6819 541.568 85.6819 541.26 85.927C540.888 86.2354 540.888 86.7256 541.196 87.034C543.837 90.0389 546.534 93.2334 549.048 96.4201C549.23 96.602 549.42 96.7285 549.665 96.7285C549.847 96.7285 549.974 96.6653 550.155 96.5466C550.464 96.2936 550.527 95.8034 550.282 95.495ZM190.187 94.4512C189.878 94.2061 189.388 94.206 189.143 94.5144C186.32 97.456 183.56 100.524 180.801 103.592C180.492 103.964 180.555 104.391 180.864 104.699C180.99 104.826 181.172 104.881 181.354 104.881C181.536 104.881 181.781 104.818 181.908 104.636C184.667 101.568 187.49 98.4998 190.25 95.5582C190.558 95.2498 190.495 94.7596 190.187 94.4512ZM564.697 115.493C562.491 112.061 560.158 108.685 557.762 105.308C557.517 104.936 557.027 104.881 556.655 105.126C556.347 105.371 556.228 105.862 556.473 106.233C558.869 109.546 561.257 112.923 563.464 116.355C563.59 116.537 563.835 116.663 564.08 116.663C564.207 116.663 564.389 116.663 564.507 116.537C564.879 116.355 564.942 115.864 564.697 115.493ZM173.747 112.796C173.375 112.551 172.948 112.614 172.64 112.923C169.999 115.991 167.303 119.122 164.662 122.309C164.416 122.681 164.416 123.171 164.788 123.416C164.915 123.543 165.096 123.598 165.278 123.598C165.46 123.598 165.705 123.471 165.832 123.29C168.473 120.103 171.169 116.971 173.81 113.903C174.055 113.595 174.056 113.105 173.747 112.796ZM577.215 136.843C576.416 135.372 575.681 133.957 574.882 132.549C573.72 130.343 572.486 128.192 571.205 126.049C571.023 125.678 570.533 125.559 570.161 125.741C569.79 125.986 569.671 126.413 569.916 126.785C571.205 128.991 572.431 131.26 573.72 133.593C574.392 134.882 575.127 136.234 575.807 137.578C575.989 137.823 576.234 137.95 576.479 137.95C576.606 137.95 576.724 137.95 576.851 137.887C577.215 137.705 577.396 137.207 577.215 136.843ZM157.98 131.75C157.608 131.505 157.181 131.569 156.873 131.877C154.358 134.945 151.962 138.132 149.511 141.263C149.448 141.39 149.329 141.445 149.266 141.571C148.957 141.943 149.021 142.433 149.392 142.678C149.519 142.805 149.701 142.86 149.819 142.86C150.001 142.86 150.191 142.797 150.31 142.678C150.373 142.615 150.373 142.615 150.436 142.552C153.014 139.239 155.528 136.052 158.106 132.857C158.351 132.549 158.288 132.059 157.98 131.75ZM587.518 159.292C587.146 158.375 586.719 157.394 586.292 156.406C586.11 155.915 585.865 155.362 585.62 154.808C584.703 152.539 583.659 150.206 582.615 147.937C582.433 147.565 581.999 147.383 581.572 147.565C581.2 147.747 581.018 148.182 581.2 148.546C581.935 150.143 582.671 151.732 583.351 153.33C583.841 154.374 584.268 155.417 584.64 156.398C585.13 157.442 585.557 158.422 585.929 159.466C585.992 159.592 586.055 159.711 586.11 159.838C586.237 160.146 586.482 160.328 586.783 160.328C586.909 160.328 586.964 160.328 587.091 160.265C587.399 160.138 587.644 159.838 587.581 159.466C587.581 159.418 587.581 159.355 587.518 159.292ZM142.829 151.258C142.458 151.013 142.031 151.076 141.722 151.385C139.271 154.634 136.812 157.948 134.36 161.324C134.115 161.633 134.234 162.123 134.542 162.368C134.669 162.494 134.851 162.55 134.969 162.55C135.214 162.55 135.459 162.423 135.641 162.178C138.037 158.865 140.489 155.552 142.94 152.302C143.201 151.993 143.138 151.503 142.829 151.258ZM128.232 171.137C127.86 170.892 127.37 170.955 127.125 171.319C124.792 174.632 122.404 177.945 120.008 181.377C119.763 181.686 119.882 182.176 120.19 182.421C120.372 182.548 120.499 182.548 120.681 182.548C120.862 182.548 121.108 182.484 121.297 182.239C123.63 178.863 126.018 175.494 128.414 172.181C128.659 171.809 128.533 171.382 128.232 171.137ZM594.753 179.907C593.836 176.838 592.855 173.834 591.867 170.892C591.741 170.465 591.25 170.275 590.887 170.402C590.46 170.584 590.27 171.019 590.396 171.382C591.559 174.759 592.666 178.191 593.709 181.686C593.836 182.176 594.018 182.603 594.136 183.093C594.263 183.465 594.563 183.647 594.872 183.647H595.117C595.489 183.52 595.734 183.093 595.607 182.666C595.37 181.749 595.062 180.824 594.753 179.907ZM114.062 191.317C113.754 191.072 113.263 191.135 113.018 191.499L112.71 191.926C110.44 195.302 108.108 198.734 105.902 202.174C105.656 202.545 105.72 203.036 106.083 203.281C106.21 203.344 106.392 203.407 106.51 203.407C106.756 203.407 107.001 203.281 107.127 203.036C109.397 199.604 111.666 196.164 113.999 192.788L114.307 192.361C114.489 192.052 114.426 191.562 114.062 191.317ZM601.38 206.286H601.316C600.644 202.419 599.719 198.56 598.802 194.63C598.739 194.203 598.312 193.958 597.885 194.077C597.513 194.14 597.212 194.567 597.331 194.994C598.248 198.734 599.047 202.474 599.782 206.222C599.846 206.468 599.909 206.776 599.964 207.021C600.027 207.393 600.336 207.638 600.7 207.638C600.763 207.638 600.763 207.638 600.826 207.638C601.253 207.511 601.498 207.148 601.443 206.721C601.443 206.594 601.38 206.404 601.38 206.286ZM100.256 212.359C99.9473 212.113 99.457 212.232 99.2119 212.604C97.0611 216.099 94.9182 219.594 92.8306 223.152C92.5855 223.524 92.7041 223.951 93.0758 224.196C93.2023 224.259 93.3209 224.322 93.4474 224.322C93.7558 224.322 94.0009 224.196 94.1195 223.951C96.2071 220.392 98.35 216.897 100.501 213.402C100.746 213.031 100.627 212.604 100.256 212.359ZM603.467 218.922C603.404 218.495 603.04 218.186 602.605 218.305C602.178 218.368 601.933 218.732 601.988 219.167C602.542 223.215 603.032 227.327 603.396 231.376C603.459 231.803 603.768 232.048 604.195 232.048C604.195 232.048 604.195 232.048 604.258 232.048C604.685 232.048 604.993 231.676 604.93 231.249C604.574 227.145 604.084 223.034 603.467 218.922ZM87.6829 233.519C87.3113 233.337 86.821 233.455 86.6391 233.827C84.5516 237.449 82.5905 241.126 80.6849 244.684C80.503 245.056 80.6216 245.483 80.9932 245.665C81.1198 245.728 81.2384 245.791 81.3649 245.791C81.61 245.791 81.9184 245.665 82.037 245.364C83.9348 241.869 85.9037 238.184 87.9913 234.57C88.1732 234.199 88.0467 233.764 87.6829 233.519ZM605.8 243.585C605.8 243.158 605.428 242.849 605.001 242.849C604.574 242.849 604.266 243.221 604.266 243.648C604.448 247.697 604.574 251.809 604.574 255.92C604.574 256.347 604.946 256.719 605.31 256.719C605.737 256.719 606.108 256.347 606.108 255.92C606.108 251.801 605.982 247.633 605.8 243.585ZM76.0274 255.296C75.6557 255.114 75.1655 255.232 74.9836 255.604C73.1412 259.281 71.3067 263.029 69.5829 266.706C69.401 267.133 69.5829 267.568 69.9545 267.75C70.081 267.813 70.1364 267.813 70.2629 267.813C70.5713 267.813 70.8164 267.687 70.935 267.386C72.7142 263.709 74.5566 259.961 76.3911 256.347C76.573 255.913 76.3911 255.486 76.0274 255.296ZM605.064 267.449C604.693 267.513 604.329 267.758 604.266 268.185C604.084 272.297 603.839 276.409 603.467 280.457C603.404 280.884 603.712 281.256 604.139 281.319H604.203C604.574 281.319 604.938 281.011 604.938 280.584C605.365 276.535 605.61 272.423 605.8 268.256C605.863 267.876 605.491 267.505 605.064 267.449ZM65.4078 277.571C65.0361 277.389 64.6091 277.571 64.4272 277.998C62.7746 281.738 61.114 285.542 59.58 289.345C59.4535 289.717 59.6433 290.207 60.007 290.326C60.1335 290.389 60.1889 290.389 60.3154 290.389C60.6238 290.389 60.8689 290.207 60.9875 289.899C62.5215 286.158 64.1742 282.355 65.8347 278.615C66.0245 278.18 65.8427 277.753 65.4078 277.571ZM602.914 291.986C602.542 291.923 602.115 292.231 602.052 292.658C601.498 296.707 600.826 300.755 600.091 304.804C600.027 305.231 600.273 305.603 600.707 305.721C600.771 305.721 600.771 305.721 600.834 305.721C601.206 305.721 601.506 305.476 601.633 305.104C602.368 300.993 603.04 296.881 603.594 292.895C603.594 292.476 603.341 292.041 602.914 291.986ZM56.0849 300.384C55.6579 300.257 55.223 300.447 55.1044 300.811C53.6336 304.677 52.2182 308.6 50.9293 312.466C50.7474 312.838 50.9925 313.265 51.3563 313.447H51.6014C51.9731 313.447 52.2182 313.265 52.3368 312.957C53.689 309.09 55.0965 305.168 56.5119 301.364C56.6384 301.001 56.4566 300.51 56.0849 300.384ZM598.501 316.278C598.074 316.151 597.703 316.46 597.584 316.831C596.722 320.761 595.686 324.747 594.579 328.795C594.516 329.167 594.706 329.594 595.133 329.712C595.196 329.712 595.259 329.776 595.315 329.776C595.686 329.776 595.987 329.531 596.05 329.159C597.157 325.174 598.201 321.125 599.118 317.195C599.173 316.768 598.928 316.341 598.501 316.278ZM48.051 323.695C47.6793 323.568 47.2523 323.821 47.1337 324.248C45.9081 328.178 44.7378 332.164 43.7019 336.086C43.6387 336.513 43.8838 336.948 44.2554 337.003C44.3187 337.066 44.382 337.066 44.5006 337.066C44.809 337.066 45.1173 336.821 45.236 336.513C46.2165 332.583 47.3868 328.597 48.6124 324.675C48.7231 324.248 48.478 323.821 48.051 323.695ZM591.994 340.016C591.567 339.889 591.132 340.079 591.013 340.506C589.724 344.246 588.19 348.113 586.537 351.916C586.356 352.343 586.537 352.778 586.964 352.96C587.028 352.96 587.146 353.023 587.273 353.023C587.518 353.023 587.826 352.842 587.945 352.533C589.598 348.666 591.132 344.808 592.421 341.004C592.61 340.632 592.365 340.198 591.994 340.016ZM41.6697 347.504C41.2427 347.441 40.8711 347.686 40.7525 348.121C39.8905 352.169 39.0365 356.218 38.3012 360.203C38.2379 360.63 38.5463 361.002 38.9179 361.121H39.0998C39.4715 361.121 39.7719 360.875 39.8352 360.504C40.5706 356.518 41.3692 352.47 42.2865 348.421C42.3498 347.994 42.0967 347.623 41.6697 347.504ZM582.307 362.655C581.935 362.528 581.508 362.655 581.263 363.026C579.484 366.521 577.46 370.143 575.309 373.701C575.064 374.073 575.182 374.563 575.554 374.808C575.681 374.872 575.799 374.872 575.926 374.872C576.234 374.872 576.479 374.745 576.598 374.5C578.804 370.878 580.828 367.265 582.671 363.706C582.853 363.327 582.671 362.836 582.307 362.655ZM37.2574 371.796C36.7671 371.669 36.4587 371.977 36.3955 372.412C35.842 376.587 35.415 380.691 35.0433 384.74C35.0433 385.167 35.3517 385.539 35.7787 385.539C35.7787 385.539 35.7787 385.539 35.842 385.539C36.2136 385.539 36.5773 385.23 36.5773 384.867C36.949 380.818 37.376 376.706 37.9295 372.658C37.9928 372.223 37.6844 371.796 37.2574 371.796ZM569.726 383.878C569.355 383.633 568.928 383.696 568.683 384.06C566.413 387.373 563.962 390.75 561.503 394C561.194 394.371 561.321 394.861 561.629 395.107C561.756 395.17 561.937 395.233 562.119 395.233C562.301 395.233 562.546 395.17 562.736 394.925C565.187 391.675 567.647 388.298 569.916 384.922C570.153 384.55 570.098 384.06 569.726 383.878ZM35.842 402.587C35.842 400.808 35.842 398.965 35.9052 397.131C35.9052 396.704 35.5968 396.332 35.1698 396.332C34.7428 396.332 34.3712 396.641 34.3712 397.068C34.3079 398.91 34.3079 400.745 34.3079 402.587C34.3079 404.92 34.3712 407.189 34.4344 409.459C34.4344 409.83 34.8061 410.194 35.1698 410.194C35.2331 410.194 35.2331 410.194 35.2331 410.194C35.6601 410.131 35.9685 409.822 35.9685 409.395C35.9052 407.126 35.842 404.856 35.842 402.587ZM554.884 403.512C554.576 403.204 554.085 403.267 553.777 403.575C551.263 406.644 548.503 409.775 545.68 412.835C545.371 413.143 545.435 413.634 545.743 413.942C545.87 414.069 546.052 414.124 546.233 414.124C546.479 414.124 546.66 413.997 546.787 413.879C549.673 410.747 552.433 407.624 555.011 404.556C555.248 404.248 555.192 403.757 554.884 403.512ZM538.255 421.731C537.946 421.422 537.456 421.422 537.148 421.731C534.325 424.554 531.32 427.432 528.315 430.255C528.007 430.5 527.944 430.99 528.252 431.299C528.378 431.481 528.624 431.544 528.805 431.544C528.987 431.544 529.177 431.481 529.359 431.362C532.364 428.539 535.369 425.661 538.255 422.775C538.563 422.466 538.563 421.976 538.255 421.731ZM36.7671 421.604C36.7671 421.233 36.3955 420.869 35.9685 420.932C35.5415 420.995 35.2331 421.359 35.2963 421.794C35.7233 425.969 36.2769 430.073 36.949 434.066C37.0123 434.438 37.376 434.683 37.7476 434.683C37.7476 434.683 37.8109 434.683 37.8742 434.683C38.3012 434.62 38.5463 434.256 38.4909 433.821C37.803 429.828 37.1941 425.779 36.7671 421.604ZM520.226 438.479C519.918 438.17 519.427 438.17 519.119 438.415C516.114 440.993 512.983 443.626 509.67 446.331C509.361 446.576 509.298 447.066 509.543 447.375C509.725 447.556 509.915 447.683 510.16 447.683C510.342 447.683 510.468 447.62 510.65 447.501C513.963 444.86 517.15 442.164 520.099 439.586C520.471 439.269 520.471 438.843 520.226 438.479ZM41.1162 445.777C40.9897 445.35 40.5627 445.105 40.1357 445.224C39.764 445.35 39.5189 445.777 39.5822 446.141C40.6892 450.19 41.9148 454.175 43.2591 457.978C43.3856 458.35 43.6308 458.532 43.9945 458.532C44.0578 458.532 44.121 458.532 44.2396 458.469C44.6113 458.342 44.8564 457.915 44.6666 457.488C43.3303 453.685 42.16 449.763 41.1162 445.777ZM501.019 454.056C500.774 453.685 500.283 453.629 499.975 453.874C496.725 456.326 493.349 458.785 490.035 461.173C489.664 461.418 489.608 461.845 489.854 462.217C490.035 462.399 490.225 462.525 490.47 462.525C490.652 462.525 490.779 462.525 490.961 462.399C494.274 460.003 497.65 457.551 500.9 455.1C501.264 454.855 501.327 454.365 501.019 454.056ZM481.021 468.535C481.021 468.472 480.958 468.408 480.958 468.353C480.713 467.981 480.222 467.926 479.914 468.108C479.669 468.234 479.487 468.416 479.242 468.535C477.526 469.697 475.684 470.931 473.904 472.03C472.497 473.01 471.018 473.928 469.611 474.853C469.239 475.035 469.12 475.525 469.366 475.897C469.492 476.142 469.737 476.268 469.982 476.268C470.109 476.268 470.291 476.205 470.409 476.142C472.56 474.79 474.64 473.445 476.727 472.03C478.079 471.168 479.424 470.314 480.776 469.389C481.021 469.207 481.148 468.843 481.021 468.535ZM54.9858 479.7C52.8982 476.205 51.0005 472.52 49.3399 468.843C49.158 468.472 48.6678 468.29 48.2961 468.472C47.9245 468.653 47.7426 469.088 47.9245 469.515C49.6404 473.192 51.5461 476.94 53.6257 480.499C53.7522 480.744 53.9974 480.87 54.2978 480.87C54.4244 480.87 54.543 480.807 54.6695 480.744C55.0411 480.554 55.1677 480.064 54.9858 479.7ZM460.106 481.542C459.924 481.171 459.434 481.052 459.062 481.234C458.39 481.606 457.773 482.033 457.101 482.396C454.278 484.112 451.4 485.773 448.387 487.426C448.015 487.607 447.897 488.098 448.142 488.469C448.269 488.714 448.514 488.841 448.814 488.841C448.941 488.841 449.059 488.841 449.186 488.778C452.807 486.69 456.421 484.603 459.861 482.578C459.924 482.515 459.987 482.452 460.043 482.396C460.288 482.151 460.288 481.843 460.106 481.542ZM438.637 493.625C438.455 493.253 437.965 493.135 437.594 493.317C434.098 495.214 430.358 497.12 426.673 498.963C426.302 499.144 426.183 499.516 426.302 499.824C426.238 499.888 426.302 499.951 426.302 500.006C426.428 500.251 426.729 500.433 426.974 500.433C427.1 500.433 427.219 500.37 427.346 500.307C427.654 500.125 428.018 499.998 428.326 499.817C431.758 498.164 435.071 496.385 438.329 494.661C438.693 494.479 438.819 493.989 438.637 493.625ZM69.2112 499.571C66.5148 496.503 63.937 493.253 61.6043 490.003C61.3591 489.632 60.8689 489.576 60.4972 489.822C60.1889 490.067 60.1256 490.557 60.3707 490.865C62.5215 493.933 64.9096 496.938 67.3609 499.824C67.606 500.07 67.7879 500.378 68.033 500.623C68.1595 500.75 68.4047 500.868 68.5865 500.868C68.7684 500.868 68.9582 500.805 69.14 500.686C69.3852 500.441 69.4484 500.133 69.3219 499.824C69.3377 499.698 69.2745 499.635 69.2112 499.571ZM416.607 504.727C416.425 504.3 415.935 504.174 415.564 504.355C412.005 506.008 408.384 507.732 404.335 509.511C403.963 509.637 403.781 510.128 403.963 510.492C404.09 510.8 404.39 510.982 404.635 510.982C404.762 510.982 404.881 510.918 404.944 510.855C408.992 509.076 412.669 507.423 416.228 505.7C416.607 505.526 416.797 505.099 416.607 504.727ZM86.8843 516.509C85.4767 515.402 84.0613 514.24 82.7724 513.133C80.9932 511.599 79.3406 510.001 77.68 508.467C77.3716 508.159 76.8814 508.159 76.573 508.467C76.2646 508.776 76.2646 509.266 76.573 509.574C78.534 511.417 80.5583 513.251 82.7091 515.03C83.7529 515.948 84.7967 516.873 85.8958 517.727C86.0224 517.853 86.2042 517.909 86.3861 517.909C86.6312 517.909 86.8131 517.782 87.0029 517.6C87.248 517.3 87.1926 516.81 86.8843 516.509ZM394.04 514.785C393.858 514.358 393.423 514.168 393.059 514.358C389.319 515.892 385.452 517.49 381.585 518.96C381.214 519.142 381.032 519.577 381.158 520.004C381.285 520.313 381.585 520.494 381.894 520.494C381.957 520.494 382.076 520.431 382.202 520.431C386.069 518.897 389.928 517.3 393.613 515.766C394.04 515.584 394.221 515.157 394.04 514.785ZM370.112 523.373C366.245 524.78 362.323 526.132 358.519 527.485C358.092 527.611 357.903 528.038 358.029 528.402C358.156 528.773 358.401 528.955 358.765 528.955C358.828 528.955 358.891 528.955 359.01 528.892C362.876 527.603 366.735 526.196 370.602 524.78C371.029 524.654 371.219 524.227 371.092 523.8C370.91 523.373 370.42 523.191 370.112 523.373ZM107.064 530.371L106.637 530.062C103.205 528.101 99.8919 526.014 96.6974 523.808C96.389 523.562 95.8987 523.681 95.6536 524.053C95.4085 524.361 95.5271 524.851 95.8354 525.096C99.0221 527.247 102.399 529.39 105.838 531.414L106.329 531.723C106.455 531.786 106.574 531.786 106.7 531.786C107.009 531.786 107.254 531.66 107.372 531.414C107.617 531.043 107.436 530.553 107.064 530.371ZM346.801 531.288C346.002 531.533 345.203 531.842 344.349 532.087C341.345 533.004 338.213 533.984 335.09 534.91C334.663 535.036 334.418 535.4 334.536 535.827C334.663 536.198 334.963 536.38 335.272 536.38H335.517C338.585 535.463 341.716 534.538 344.658 533.621C345.575 533.312 346.437 533.067 347.299 532.759C347.671 532.632 347.916 532.205 347.789 531.778C347.663 531.415 347.228 531.169 346.801 531.288ZM129.268 540.737C127.916 540.247 126.627 539.757 125.283 539.203C122.768 538.223 120.372 537.116 117.984 536.017C117.612 535.835 117.122 536.017 116.94 536.388C116.758 536.76 116.94 537.25 117.312 537.432C119.89 538.658 122.586 539.765 125.291 540.864C126.398 541.354 127.56 541.781 128.722 542.216H129.031C129.339 542.216 129.648 542.034 129.766 541.726C129.885 541.346 129.703 540.919 129.268 540.737ZM323.181 538.16C319.315 539.203 315.329 540.247 311.281 541.228C310.854 541.354 310.609 541.718 310.727 542.145C310.79 542.517 311.099 542.762 311.463 542.762C311.526 542.762 311.589 542.762 311.644 542.698C315.693 541.718 319.742 540.674 323.608 539.694C323.98 539.567 324.225 539.14 324.162 538.713C324.043 538.341 323.608 538.096 323.181 538.16ZM299.261 543.987C295.276 544.849 291.164 545.703 287.297 546.439H287.171C286.744 546.502 286.499 546.866 286.554 547.3C286.617 547.672 286.981 547.917 287.353 547.917C287.353 547.917 287.416 547.917 287.479 547.917C290.239 547.427 293.062 546.874 295.885 546.265C297.111 546.02 298.336 545.774 299.562 545.466C299.989 545.403 300.234 544.976 300.179 544.549C300.052 544.169 299.688 543.869 299.261 543.987ZM152.824 547.727C148.776 546.81 144.79 545.766 140.923 544.659C140.496 544.533 140.062 544.723 139.943 545.15C139.816 545.577 140.069 546.012 140.496 546.13C144.237 547.174 148.04 548.218 151.907 549.135C152.089 549.198 152.279 549.198 152.46 549.262H152.642C152.769 549.262 152.887 549.198 153.014 549.135L153.077 549.072C153.259 549.008 153.322 548.827 153.386 548.645C153.441 548.281 153.196 547.854 152.824 547.727ZM275.088 548.589C270.913 549.206 266.865 549.815 262.879 550.369C262.452 550.432 262.144 550.796 262.207 551.23C262.271 551.602 262.634 551.903 263.006 551.903H263.069C267.055 551.349 271.166 550.74 275.341 550.06C275.713 549.997 276.014 549.633 275.958 549.198C275.903 548.763 275.515 548.526 275.088 548.589ZM176.997 551.903C172.948 551.476 168.837 550.859 164.851 550.187C164.424 550.123 164.053 550.369 163.934 550.803C163.871 551.23 164.179 551.602 164.606 551.665C168.591 552.401 172.703 552.954 176.815 553.445C176.878 553.445 176.878 553.445 176.942 553.445C177.313 553.445 177.614 553.199 177.677 552.772C177.74 552.345 177.424 551.966 176.997 551.903ZM250.67 551.839C246.559 552.266 242.447 552.638 238.398 552.946C237.971 552.946 237.663 553.318 237.663 553.745C237.726 554.172 238.034 554.48 238.461 554.48C238.461 554.48 238.461 554.48 238.525 554.48C242.573 554.172 246.685 553.808 250.797 553.373C251.224 553.31 251.532 552.946 251.532 552.511C251.469 552.084 251.105 551.776 250.67 551.839ZM201.534 553.745C197.359 553.618 193.191 553.373 189.261 553.128C188.708 553.065 188.463 553.373 188.4 553.8C188.4 554.227 188.708 554.599 189.135 554.662C193.12 554.907 197.295 555.153 201.463 555.279C201.89 555.279 202.261 554.971 202.261 554.544C202.269 554.109 201.969 553.745 201.534 553.745ZM226.134 553.619C222.022 553.8 217.855 553.927 213.806 553.927C213.379 553.927 213.071 554.299 213.071 554.726C213.071 555.097 213.379 555.461 213.806 555.461C217.918 555.461 222.03 555.334 226.197 555.153C226.624 555.153 226.932 554.781 226.932 554.354C226.869 553.99 226.505 553.619 226.134 553.619Z" fill="#D8D5DB"/>
<path d="M375.022 156.414L415.508 226.529L427.037 246.526L433.782 258.182L477.645 334.125L493.412 361.484L509.243 334.125L582.426 207.322L585.003 202.901L605.001 168.306L610.521 158.675L611.011 157.876L611.873 156.406H375.022V156.414ZM602.732 166.045L594.753 179.907L593.71 181.686L582.18 201.62L579.666 206.041L505.684 334.125L493.412 355.348L481.14 334.125L437.285 258.182L430.54 246.526L415.508 220.456L380.296 159.482H606.535L602.732 166.045Z" fill="white"/>
<path d="M431.394 451.146C427.021 448.529 428.294 448.197 423.352 449.106C418.015 450.095 406.525 455.598 400.721 460.193C400.658 460.185 400.619 460.153 400.555 460.145C374.247 455.638 369.622 437.032 358.994 428.215C353.103 389.595 323.387 284.482 323.387 284.482L278.631 301.119C285.155 345.401 311.399 429.63 318.208 448.632C319.33 450.933 320.762 452.76 322.383 454.246C324.613 458.975 328.63 463.514 335.114 467.262C361.943 482.784 387.342 482.99 397.06 482.373C397.377 482.689 397.732 482.958 398.136 483.179C404.722 486.777 431.718 490.296 438.028 488.232C444.433 486.137 457.568 472.844 456.627 469.167C455.085 463.158 442.362 457.71 431.394 451.146Z" fill="white"/>
<path d="M283.233 256.086C270.597 284.49 275.239 374.492 275.239 374.492L356.005 355.245C355.997 355.245 316.555 181.164 283.233 256.086Z" fill="#6DB8E2"/>
<path d="M351.585 594.658C337.597 601.648 323.608 607.911 309.81 613.304C237.789 641.826 170.742 648.515 124.484 620.238C125.156 593.677 126.081 566.009 126.817 553.437C126.943 551.966 127.062 550.677 127.125 549.633L151.907 549.143H153.014L153.077 549.08L287.179 546.439H287.305L295.893 546.257L304.48 546.075L344.112 545.276C344.539 547.119 344.974 549.08 345.338 551.041C347.908 563.558 349.932 578.59 351.585 594.658Z" fill="#273C8A"/>
<path d="M223.904 218.036C175.724 219.625 159.435 235.891 151.132 264.018C141.698 295.956 125.085 488.849 125.085 553.302C125.085 553.302 269.277 563.519 349.149 550.424C324.106 465.823 321.394 313.716 320.896 268.398C320.517 234.389 284.981 216.02 223.904 218.036Z" fill="#7BD0FF"/>
<path d="M266.351 139.16C271.095 135.586 295.853 138.828 288.721 88.4178C286.119 70.0331 268.85 82.3054 256.625 84.7567C244.4 87.208 252.173 140.069 252.173 140.069L266.351 139.16Z" fill="#232323"/>
<path d="M204.705 127.085C206.761 140.449 210.872 212.73 209.157 229.518C207.441 246.305 288.642 251.097 278.014 232.601C267.395 214.098 274.93 152.776 274.93 152.776L204.705 127.085Z" fill="white"/>
<path d="M210.327 129.125L274.93 152.784C274.93 152.784 270.565 188.502 273.199 213.647C223.943 209.836 211.299 147.621 210.469 135.641C210.327 133.387 210.256 131.205 210.327 129.125Z" fill="#263238"/>
<path d="M295.671 124.808C301.657 166.069 311.826 207.219 261.804 200.45C211.782 193.673 204.009 129.544 204.151 117.446C204.926 52.8898 283.897 43.6698 295.671 124.808Z" fill="white"/>
<path d="M290.334 78.7312C278.56 65.0593 212.375 59.9037 201.423 72.002C200.221 68.1986 202.672 63.5332 202.704 63.4858L200 62.0308C199.873 62.268 196.884 67.906 198.505 72.9667C198.561 73.1328 198.695 73.2435 198.75 73.4017C186.636 76.0664 194.37 128.674 194.37 128.674L208.548 127.765C213.292 124.191 229.747 99.0612 233.377 83.8869C259.297 88.2755 305.295 96.1038 290.334 78.7312Z" fill="#232323"/>
<path d="M283.296 452.601C278.228 452.886 258.57 456.302 251.667 454.697C228.474 449.28 168.694 422.474 136.519 407.482C156.311 364.513 185.458 288.459 185.458 288.459L139.642 275.017C118.379 314.404 89.0114 397.597 83.0966 416.899C82.7645 418.631 82.7408 420.252 82.8436 421.818C82.6301 429.449 86.1331 437.253 95.3136 442.844C120.783 458.366 216.874 473.414 243.475 476.355C243.965 477.352 244.613 478.245 245.673 478.846C252.181 482.499 281.802 485.243 287.891 486.319C295.529 487.671 318.714 489.632 317.709 486.524C316.08 481.432 307.485 451.241 283.296 452.601Z" fill="white"/>
<path d="M167.137 235.448C141.295 252.718 97.1718 331.302 97.1718 331.302L175.74 358.139C175.74 358.132 235.314 189.878 167.137 235.448Z" fill="#6DB8E2"/>
<path d="M253.549 122.768C253.391 124.776 254.474 126.508 255.984 126.626C257.487 126.745 258.839 125.219 259.005 123.21C259.163 121.202 258.08 119.47 256.569 119.352C255.059 119.225 253.707 120.759 253.549 122.768Z" fill="#232323"/>
<path d="M285.416 123.614C285.257 125.622 286.341 127.354 287.851 127.473C289.353 127.591 290.706 126.065 290.872 124.057C291.03 122.048 289.946 120.316 288.436 120.198C286.926 120.071 285.574 121.605 285.416 123.614Z" fill="#232323"/>
<path d="M245.712 111.476L243.143 109.799C248.567 101.497 257.668 103.418 258.056 103.513L257.392 106.51C257.091 106.439 249.951 104.984 245.712 111.476Z" fill="#232323"/>
<path d="M293.948 115.303C290.706 108.242 283.415 108.629 283.122 108.661L282.909 105.601C283.304 105.569 292.595 105 296.731 114.022L293.948 115.303Z" fill="#232323"/>
<path d="M263.789 160.763C258.609 160.763 248.638 159.292 242.447 148.996L245.08 147.415C252.584 159.893 266.042 157.616 266.612 157.513L267.165 160.525C267.118 160.533 265.821 160.763 263.789 160.763Z" fill="#232323"/>
<path d="M287.369 146.79L272.479 146.585L272.519 143.517L283.265 143.667L276.63 121.044L279.572 120.182L287.369 146.79Z" fill="#263238"/>
<path d="M216.835 132.336C221.35 142.52 227.011 152.373 212.826 154.2C198.64 156.034 192.037 140.101 191.23 136.977C186.945 120.332 207.955 112.314 216.835 132.336Z" fill="white"/>
<path d="M600.984 499.801H13.9859C9.19398 499.801 5.27191 495.879 5.27191 491.087C5.27191 486.295 9.19398 482.373 13.9859 482.373H600.984C605.776 482.373 609.698 486.295 609.698 491.087C609.69 495.879 605.776 499.801 600.984 499.801Z" fill="white"/>
<path d="M231.218 499.801H9.62888C4.83699 499.801 0.914917 495.879 0.914917 491.087C0.914917 486.295 4.83699 482.373 9.62888 482.373H231.218C236.01 482.373 239.932 486.295 239.932 491.087C239.932 495.879 236.01 499.801 231.218 499.801Z" fill="#D8D5DB"/>
<path d="M572.241 468.543H390.157C383.199 468.543 378.588 462.905 379.854 455.946L399.717 346.737C400.982 339.778 407.648 334.141 414.607 334.141H596.691C603.649 334.141 608.259 339.778 606.994 346.737L587.13 455.946C585.865 462.905 579.199 468.543 572.241 468.543Z" fill="#273C8A"/>
<path d="M576.693 468.543H394.609C387.65 468.543 383.04 462.905 384.306 455.946L404.169 346.737C405.434 339.778 412.1 334.141 419.059 334.141H601.142C608.101 334.141 612.711 339.778 611.446 346.737L591.582 455.946C590.317 462.905 583.651 468.543 576.693 468.543Z" fill="#273C8A"/>
<path d="M477.281 376.208L468.14 426.507H518.439L527.643 376.208H477.281ZM515.924 423.447H471.817L479.851 379.276H523.958L515.924 423.447Z" fill="white"/>
<path d="M358.227 472.038C358.227 477.723 362.884 482.381 368.57 482.381H559.051C564.737 482.381 569.394 477.723 569.394 472.038H358.227Z" fill="#273C8A"/>
<path d="M302.883 472.038C302.883 477.723 307.54 482.381 313.226 482.381H388.133C393.818 482.381 398.476 477.723 398.476 472.038H302.883Z" fill="#273C8A"/>
<path d="M512.105 133.134C505.653 133.134 500.426 138.361 500.426 144.813H523.784C523.784 138.361 518.558 133.134 512.105 133.134Z" fill="#377ADB"/>
<path d="M512.121 133.134V246.534C512.121 252.995 506.878 258.182 500.418 258.182H415.508V144.837C415.508 138.377 420.751 133.134 427.156 133.134H512.121Z" fill="#273C8A"/>
<path d="M488.77 246.534L403.821 246.519C403.821 252.971 409.048 258.198 415.5 258.198L500.418 258.182C493.958 258.19 488.77 252.995 488.77 246.534Z" fill="#6EA9FF"/>
<path d="M499.43 149.115H428.208V152.183H499.43V149.115Z" fill="white"/>
<path d="M499.43 160.731H428.208V163.799H499.43V160.731Z" fill="white"/>
<path d="M499.43 172.355H428.208V175.423H499.43V172.355Z" fill="white"/>
<path d="M499.43 183.971H428.208V187.039H499.43V183.971Z" fill="white"/>
<path d="M499.43 195.587H428.208V198.655H499.43V195.587Z" fill="white"/>
<path d="M499.43 207.203H428.208V210.271H499.43V207.203Z" fill="white"/>
<path d="M499.43 218.819H428.208V221.887H499.43V218.819Z" fill="white"/>
<path d="M499.43 230.443H428.208V233.511H499.43V230.443Z" fill="white"/>
<path d="M601.348 206.262C624.345 206.262 642.989 187.619 642.989 164.622C642.989 141.624 624.345 122.981 601.348 122.981C578.351 122.981 559.708 141.624 559.708 164.622C559.708 187.619 578.351 206.262 601.348 206.262Z" fill="#FFC84D"/>
<path d="M601.348 164.622L634.433 197.706C616.285 215.854 586.411 215.854 568.264 197.706C560.491 189.933 555.699 179.654 554.734 168.702L601.348 164.622Z" fill="#232323"/>
<path d="M601.348 164.622L554.876 170.038C554.267 164.788 554.544 159.474 555.706 154.318C556.869 149.163 558.893 144.244 561.7 139.769L601.348 164.622Z" fill="white"/>
<path d="M404.746 104.391H355.048C354.463 104.391 353.981 103.908 353.981 103.323V53.6252C353.981 53.0401 354.463 52.5577 355.048 52.5577H404.746C405.331 52.5577 405.814 53.0401 405.814 53.6252V103.323C405.814 103.908 405.339 104.391 404.746 104.391Z" fill="#232323"/>
<path d="M394.435 114.702H344.737C344.152 114.702 343.669 114.22 343.669 113.635V63.9365C343.669 63.3513 344.152 62.869 344.737 62.869H394.435C395.02 62.869 395.502 63.3513 395.502 63.9365V113.635C395.502 114.22 395.028 114.702 394.435 114.702Z" fill="#F35A59"/>
</svg>
