<svg width="512" height="512" viewBox="0 0 512 512" fill="none" xmlns="http://www.w3.org/2000/svg">
<g clip-path="url(#clip0_301_265)">
<path d="M310.208 116.736C335.723 94.976 362.667 62.3787 362.667 21.3333V0H149.333V21.3333C149.333 62.3787 176.277 94.9547 201.792 116.736C101.419 152.512 21.3335 279.979 21.3335 384C21.3335 454.592 78.7415 512 149.333 512H362.667C433.259 512 490.667 454.592 490.667 384C490.667 279.979 410.582 152.512 310.208 116.736V116.736ZM196.416 42.6667H315.52C304.406 69.4613 275.2 91.9467 256.15 103.509C240.107 93.696 208.128 71.2533 196.438 42.6667H196.416ZM362.667 469.333H149.333C102.272 469.333 64.0002 431.061 64.0002 384C64.0002 273.899 161.92 149.696 255.958 149.696C349.995 149.696 448 273.92 448 384C448 431.061 409.728 469.333 362.667 469.333ZM213.334 277.333C213.334 285.397 219.115 292.224 227.072 293.547L291.968 304.363C320.576 309.12 341.355 333.653 341.355 362.667C341.355 397.952 312.64 426.667 277.355 426.667V448H234.688V426.667C199.403 426.667 170.688 397.952 170.688 362.667H213.355C213.355 374.421 222.934 384 234.688 384H277.355C289.11 384 298.688 374.421 298.688 362.667C298.688 354.603 292.907 347.776 284.95 346.453L220.053 335.637C191.445 330.88 170.667 306.347 170.667 277.333C170.667 242.048 199.382 213.333 234.667 213.333V192H277.334V213.333C312.619 213.333 341.334 242.048 341.334 277.333H298.667C298.667 265.579 289.088 256 277.334 256H234.667C222.912 256 213.334 265.579 213.334 277.333V277.333Z" fill="white"/>
</g>
<defs>
<clipPath id="clip0_301_265">
<rect width="512" height="512" fill="white"/>
</clipPath>
</defs>
</svg>
