<svg width="512" height="512" viewBox="0 0 512 512" fill="none" xmlns="http://www.w3.org/2000/svg">
<path d="M459.648 0H277.333V64H402.752L0 466.752L45.248 512L448 109.248V234.667H512V52.352C511.983 38.4726 506.462 25.1665 496.648 15.3523C486.834 5.53802 473.527 0.0169365 459.648 0V0Z" fill="white"/>
<path d="M138.667 234.667C157.654 234.667 176.214 229.036 192.001 218.488C207.789 207.939 220.093 192.946 227.359 175.404C234.625 157.862 236.526 138.56 232.822 119.938C229.118 101.316 219.975 84.2101 206.549 70.7843C193.123 57.3585 176.018 48.2153 157.395 44.5112C138.773 40.807 119.471 42.7081 101.929 49.9741C84.3874 57.2401 69.3943 69.5447 58.8457 85.3318C48.2971 101.119 42.6667 119.68 42.6667 138.667C42.695 164.119 52.8183 188.52 70.8157 206.518C88.8131 224.515 113.215 234.638 138.667 234.667V234.667ZM138.667 106.667C144.996 106.667 151.183 108.543 156.445 112.06C161.707 115.576 165.809 120.573 168.231 126.421C170.653 132.268 171.287 138.702 170.052 144.909C168.817 151.117 165.769 156.819 161.294 161.294C156.819 165.769 151.117 168.817 144.91 170.052C138.702 171.286 132.268 170.653 126.421 168.231C120.574 165.809 115.576 161.707 112.06 156.445C108.544 151.182 106.667 144.996 106.667 138.667C106.667 130.18 110.038 122.04 116.039 116.039C122.04 110.038 130.18 106.667 138.667 106.667V106.667Z" fill="white"/>
<path d="M373.333 277.333C354.346 277.333 335.786 282.964 319.999 293.512C304.211 304.061 291.907 319.054 284.641 336.596C277.375 354.137 275.474 373.44 279.178 392.062C282.882 410.684 292.025 427.79 305.451 441.215C318.877 454.641 335.982 463.784 354.605 467.489C373.227 471.193 392.529 469.292 410.071 462.026C427.613 454.76 442.606 442.455 453.154 426.668C463.703 410.881 469.333 392.32 469.333 373.333C469.305 347.881 459.182 323.48 441.184 305.482C423.187 287.485 398.785 277.361 373.333 277.333ZM373.333 405.333C367.004 405.333 360.817 403.456 355.555 399.94C350.293 396.424 346.191 391.426 343.769 385.579C341.347 379.732 340.713 373.298 341.948 367.09C343.183 360.883 346.231 355.181 350.706 350.706C355.181 346.231 360.883 343.183 367.09 341.948C373.298 340.713 379.732 341.347 385.579 343.769C391.426 346.191 396.424 350.293 399.94 355.555C403.457 360.817 405.333 367.004 405.333 373.333C405.333 381.82 401.962 389.959 395.961 395.961C389.96 401.962 381.82 405.333 373.333 405.333Z" fill="white"/>
</svg>
