<svg width="110" height="118" viewBox="0 0 110 118" fill="none" xmlns="http://www.w3.org/2000/svg">
<path d="M99.7424 44.0397C99.927 42.8964 100.038 41.7162 100.038 40.536C100.038 28.4761 90.2522 18.7027 78.1771 18.7027C78.0663 18.7027 77.9555 18.7027 77.8447 18.7027C72.2688 8.19172 61.2277 1 48.4879 1C30.1353 1 15.2907 15.8629 15.2907 34.1557C15.2907 34.8564 15.3645 35.5572 15.4015 36.2948C7.01907 39.3559 1 47.359 1 56.8004C1 68.8604 10.7856 78.6337 22.8607 78.6337H89.809C100.149 78.6337 108.568 70.2618 108.568 59.8984C108.568 53.223 105.023 47.359 99.7424 44.0397Z" stroke="#546D7B" stroke-opacity="0.5" stroke-width="2" stroke-miterlimit="10"/>
<path d="M76.6259 98.4018L54.8021 81.2892L32.9414 98.4018H47.4537V116.326H61.8551V98.4018H76.6259Z" stroke="#546D7B" stroke-opacity="0.5" stroke-width="2" stroke-miterlimit="10"/>
</svg>
